<svg width="25" height="25" viewBox="0 0 25 25" fill="none" xmlns="http://www.w3.org/2000/svg">
<g clip-path="url(#clip0)">
<path d="M25 4.16694C25 1.9775 23.0233 0 20.8333 0H4.16667C1.97667 0 0 1.9775 0 4.16694V20.8331C0 23.0225 1.97667 25 4.16694 25H12.5V15.5556H9.44444V11.3889H12.5V9.76556C12.5 6.96583 14.6022 4.44444 17.1875 4.44444H20.5556V8.61111H17.1875C16.8189 8.61111 16.3889 9.05861 16.3889 9.72889V11.3889H20.5556V15.5556H16.3889V25H20.8333C23.0233 25 25 23.0225 25 20.8331V4.16694Z" fill="#00839E"/>
</g>
<defs>
<clipPath id="clip0">
<rect width="25" height="25" fill="white"/>
</clipPath>
</defs>
</svg>
