<svg width="566" height="176" viewBox="0 0 566 176" fill="none" xmlns="http://www.w3.org/2000/svg">
<path d="M172.3 89H168.1V66.9001H160.5V63.3H179.8V66.9001H172.2V89H172.3Z" fill="#00AED1"/>
<path d="M183.8 89V63.3H188V89H183.8Z" fill="#00AED1"/>
<path d="M205.7 66.5C203.3 66.5 201.4 67.4 200 69.1C198.6 70.8 197.9 73.2 197.9 76.2C197.9 79.4 198.6 81.7 199.9 83.4C201.2 85 203.2 85.8 205.7 85.8C206.8 85.8 207.8 85.7 208.9 85.5C209.9 85.3 211 85 212.1 84.7V88.3C210.1 89.1 207.8 89.4 205.2 89.4C201.4 89.4 198.6 88.3 196.5 86C194.5 83.7 193.5 80.5 193.5 76.2C193.5 73.5 194 71.2 195 69.2C196 67.2 197.4 65.7 199.3 64.6C201.2 63.5 203.3 63 205.8 63C208.4 63 210.9 63.6 213.1 64.7L211.6 68.2C210.7 67.8 209.8 67.4 208.8 67.1C207.8 66.7 206.8 66.5 205.7 66.5Z" fill="#00AED1"/>
<path d="M237.2 89H232.3L224.2 77.4001L221.7 79.4001V89H217.5V63.3H221.7V75.6C222.8 74.2 224 72.8 225.1 71.5L232 63.3H236.8C232.3 68.6 229.1 72.3 227.2 74.6L237.2 89Z" fill="#00AED1"/>
<path d="M255.2 89H240.7V63.3H255.2V66.9001H244.9V73.9001H254.6V77.4001H244.9V85.5H255.2V89Z" fill="#00AED1"/>
<path d="M269.6 89H265.4V66.9001H257.8V63.3H277.1V66.9001H269.5V89H269.6Z" fill="#00AED1"/>
<path d="M295.9 82C295.9 84.3 295.1 86.1 293.4 87.4C291.7 88.7 289.5 89.4 286.6 89.4C283.7 89.4 281.3 88.9 279.5 88V84C280.7 84.6 281.9 85 283.2 85.3C284.5 85.6 285.8 85.8 286.9 85.8C288.6 85.8 289.8 85.5 290.6 84.9C291.4 84.3 291.8 83.4 291.8 82.4C291.8 81.4 291.4 80.6 290.7 80C290 79.3 288.5 78.5 286.2 77.6C283.9 76.7 282.2 75.6 281.2 74.3C280.2 73.1 279.8 71.6 279.8 69.9C279.8 67.8 280.6 66.1 282.1 64.8C283.6 63.6 285.7 63 288.2 63C290.7 63 293.1 63.5 295.5 64.6L294.2 68C291.9 67 289.9 66.6 288.1 66.6C286.7 66.6 285.7 66.9 285 67.5C284.3 68.1 283.9 68.9 283.9 69.8C283.9 70.5 284 71 284.3 71.5C284.6 72 285 72.4 285.7 72.8C286.3 73.2 287.5 73.8 289.2 74.5C291.1 75.3 292.5 76 293.3 76.7C294.2 77.4 294.8 78.1 295.2 79C295.7 79.9 295.9 80.9 295.9 82Z" fill="#00AED1"/>
<path d="M390.4 171.2C389.1 171.2 388 170.7 387.2 169.7C386.4 168.7 386.1 167.4 386.1 165.6C386.1 163.8 386.5 162.5 387.2 161.5C388 160.5 389 160 390.4 160C391.8 160 392.9 160.5 393.6 161.6H393.7C393.6 160.8 393.5 160.2 393.5 159.8V155.9H395.8V171H394L393.6 169.6H393.5C392.9 170.7 391.8 171.2 390.4 171.2ZM391 169.3C391.9 169.3 392.6 169 393.1 168.5C393.5 168 393.8 167.1 393.8 165.9V165.6C393.8 164.2 393.6 163.3 393.1 162.7C392.7 162.1 392 161.8 391 161.8C390.2 161.8 389.6 162.1 389.1 162.8C388.7 163.5 388.4 164.4 388.4 165.6C388.4 166.8 388.6 167.7 389 168.3C389.5 169 390.2 169.3 391 169.3Z" fill="#004D5D"/>
<path d="M403.9 171.2C402.2 171.2 400.9 170.7 400 169.7C399.1 168.7 398.6 167.4 398.6 165.6C398.6 163.8 399 162.4 399.9 161.4C400.8 160.4 402 159.9 403.5 159.9C404.9 159.9 406.1 160.3 406.9 161.2C407.7 162.1 408.1 163.3 408.1 164.8V166H400.9C400.9 167 401.2 167.9 401.7 168.4C402.2 169 403 169.2 404 169.2C404.6 169.2 405.2 169.1 405.8 169C406.4 168.9 406.9 168.7 407.6 168.4V170.3C407 170.6 406.5 170.8 405.9 170.9C405.3 171.1 404.7 171.2 403.9 171.2ZM403.5 161.7C402.8 161.7 402.2 161.9 401.7 162.4C401.3 162.9 401 163.5 400.9 164.4H405.8C405.8 163.5 405.6 162.8 405.2 162.4C404.8 162 404.2 161.7 403.5 161.7Z" fill="#004D5D"/>
<path d="M425 160.2V161.5L423.2 161.8C423.4 162 423.5 162.3 423.6 162.6C423.7 162.9 423.8 163.3 423.8 163.7C423.8 164.8 423.4 165.7 422.6 166.3C421.8 166.9 420.8 167.3 419.4 167.3C419.1 167.3 418.7 167.3 418.5 167.2C418 167.5 417.8 167.9 417.8 168.3C417.8 168.5 417.9 168.7 418.1 168.9C418.3 169 418.8 169.1 419.4 169.1H421.3C422.5 169.1 423.4 169.4 424 169.9C424.6 170.4 424.9 171.1 424.9 172.1C424.9 173.3 424.4 174.3 423.4 174.9C422.4 175.6 420.9 175.9 419 175.9C417.5 175.9 416.4 175.6 415.6 175.1C414.8 174.6 414.4 173.8 414.4 172.9C414.4 172.2 414.6 171.7 415 171.2C415.4 170.8 416 170.4 416.8 170.3C416.5 170.2 416.2 170 416 169.7C415.8 169.4 415.7 169.1 415.7 168.8C415.7 168.4 415.8 168.1 416 167.8C416.2 167.5 416.6 167.2 417 167C416.4 166.8 416 166.4 415.6 165.8C415.3 165.3 415.1 164.6 415.1 163.9C415.1 162.7 415.5 161.8 416.2 161.2C416.9 160.6 418 160.2 419.4 160.2C419.7 160.2 420 160.2 420.4 160.3C420.7 160.3 421 160.4 421.2 160.4H425V160.2ZM416.6 172.7C416.6 173.2 416.8 173.6 417.3 173.8C417.7 174.1 418.4 174.2 419.2 174.2C420.5 174.2 421.4 174 422 173.7C422.6 173.3 422.9 172.9 422.9 172.3C422.9 171.8 422.7 171.5 422.4 171.3C422.1 171.1 421.4 171 420.5 171H418.8C418.1 171 417.6 171.2 417.2 171.5C416.8 171.7 416.6 172.2 416.6 172.7ZM417.5 163.7C417.5 164.4 417.7 164.9 418 165.3C418.4 165.7 418.9 165.8 419.5 165.8C420.8 165.8 421.5 165.1 421.5 163.7C421.5 163 421.3 162.5 421 162.1C420.7 161.7 420.2 161.5 419.5 161.5C418.8 161.5 418.3 161.7 418 162.1C417.7 162.4 417.5 163 417.5 163.7Z" fill="#004D5D"/>
<path d="M433.8 171L433.3 169.5H433.2C432.7 170.2 432.2 170.6 431.6 170.8C431.1 171 430.4 171.2 429.6 171.2C428.5 171.2 427.7 170.9 427.1 170.3C426.5 169.7 426.2 168.9 426.2 167.9C426.2 166.8 426.6 165.9 427.4 165.4C428.2 164.8 429.5 164.5 431.2 164.5L433.1 164.4V163.8C433.1 163.1 432.9 162.6 432.6 162.3C432.3 162 431.8 161.8 431.1 161.8C430.5 161.8 430 161.9 429.5 162C429 162.2 428.5 162.4 428 162.6L427.3 161C427.9 160.7 428.5 160.5 429.2 160.3C429.9 160.1 430.6 160.1 431.2 160.1C432.6 160.1 433.6 160.4 434.3 161C435 161.6 435.4 162.5 435.4 163.8V171.1H433.8V171ZM430.4 169.4C431.2 169.4 431.9 169.2 432.4 168.7C432.9 168.2 433.2 167.6 433.2 166.7V165.8L431.8 165.9C430.7 165.9 429.9 166.1 429.4 166.4C428.9 166.7 428.7 167.2 428.7 167.9C428.7 168.4 428.8 168.8 429.1 169C429.4 169.3 429.8 169.4 430.4 169.4Z" fill="#004D5D"/>
<path d="M448.2 171H445.9V164.4C445.9 163.6 445.7 162.9 445.4 162.5C445.1 162.1 444.5 161.9 443.8 161.9C442.8 161.9 442.1 162.2 441.7 162.8C441.3 163.4 441 164.3 441 165.7V171.1H438.7V160.3H440.5L440.8 161.7H440.9C441.2 161.2 441.7 160.8 442.3 160.5C442.9 160.2 443.6 160.1 444.3 160.1C446.9 160.1 448.2 161.4 448.2 164.1V171V171Z" fill="#004D5D"/>
<path d="M458.1 171L457.6 169.5H457.5C457 170.2 456.5 170.6 455.9 170.8C455.4 171 454.7 171.2 453.9 171.2C452.8 171.2 452 170.9 451.4 170.3C450.8 169.7 450.5 168.9 450.5 167.9C450.5 166.8 450.9 165.9 451.7 165.4C452.5 164.8 453.8 164.5 455.5 164.5L457.4 164.4V163.8C457.4 163.1 457.2 162.6 456.9 162.3C456.6 162 456.1 161.8 455.4 161.8C454.8 161.8 454.3 161.9 453.8 162C453.3 162.2 452.8 162.4 452.3 162.6L451.6 161C452.2 160.7 452.8 160.5 453.5 160.3C454.2 160.1 454.9 160.1 455.5 160.1C456.9 160.1 457.9 160.4 458.6 161C459.3 161.6 459.7 162.5 459.7 163.8V171.1H458.1V171ZM454.7 169.4C455.5 169.4 456.2 169.2 456.7 168.7C457.2 168.2 457.5 167.6 457.5 166.7V165.8L456.1 165.9C455 165.9 454.2 166.1 453.7 166.4C453.2 166.7 453 167.2 453 167.9C453 168.4 453.1 168.8 453.4 169C453.7 169.3 454.1 169.4 454.7 169.4Z" fill="#004D5D"/>
<path d="M468.4 160C468.9 160 469.2 160 469.5 160.1L469.3 162.2C469 162.1 468.6 162.1 468.3 162.1C467.4 162.1 466.6 162.4 466.1 163C465.5 163.6 465.3 164.4 465.3 165.3V170.9H463V160.1H464.8L465.1 162H465.2C465.6 161.4 466 160.8 466.6 160.5C467.1 160.2 467.8 160 468.4 160Z" fill="#004D5D"/>
<path d="M481.5 171.2C479.8 171.2 478.5 170.7 477.6 169.7C476.7 168.7 476.2 167.4 476.2 165.6C476.2 163.8 476.6 162.4 477.5 161.4C478.4 160.4 479.6 159.9 481.1 159.9C482.5 159.9 483.7 160.3 484.5 161.2C485.3 162.1 485.7 163.3 485.7 164.8V166H478.5C478.5 167 478.8 167.9 479.4 168.4C479.9 169 480.7 169.2 481.7 169.2C482.3 169.2 482.9 169.1 483.5 169C484.1 168.9 484.6 168.7 485.3 168.4V170.3C484.7 170.6 484.2 170.8 483.6 170.9C482.9 171.1 482.2 171.2 481.5 171.2ZM481.1 161.7C480.4 161.7 479.8 161.9 479.3 162.4C478.9 162.9 478.6 163.5 478.5 164.4H483.4C483.4 163.5 483.2 162.8 482.8 162.4C482.4 162 481.8 161.7 481.1 161.7Z" fill="#004D5D"/>
<path d="M490.6 171H488.3V155.8H490.6V171Z" fill="#004D5D"/>
<path d="M504.6 171.2C503.2 171.2 502.2 170.7 501.4 169.7H501.3C501.4 170.6 501.4 171.2 501.4 171.4V175.8H499.1V160.2H501C501.1 160.4 501.2 160.9 501.3 161.6H501.4C502.1 160.5 503.2 160 504.6 160C505.9 160 507 160.5 507.7 161.5C508.5 162.5 508.8 163.8 508.8 165.6C508.8 167.4 508.4 168.7 507.6 169.7C507 170.7 505.9 171.2 504.6 171.2ZM504 161.9C503.1 161.9 502.4 162.2 502 162.7C501.6 163.2 501.4 164.1 501.4 165.3V165.6C501.4 166.9 501.6 167.9 502 168.5C502.4 169.1 503.1 169.4 504 169.4C504.8 169.4 505.4 169.1 505.8 168.4C506.2 167.7 506.4 166.8 506.4 165.6C506.4 164.4 506.2 163.5 505.8 162.9C505.5 162.2 504.8 161.9 504 161.9Z" fill="#004D5D"/>
<path d="M517 160C517.5 160 517.8 160 518.1 160.1L517.9 162.2C517.6 162.1 517.2 162.1 516.9 162.1C516 162.1 515.2 162.4 514.7 163C514.1 163.6 513.9 164.4 513.9 165.3V170.9H511.6V160.1H513.4L513.7 162H513.8C514.2 161.4 514.6 160.8 515.2 160.5C515.7 160.2 516.4 160 517 160Z" fill="#004D5D"/>
<path d="M524.9 171.2C523.2 171.2 521.9 170.7 521 169.7C520.1 168.7 519.6 167.4 519.6 165.6C519.6 163.8 520 162.4 520.9 161.4C521.8 160.4 523 159.9 524.5 159.9C525.9 159.9 527.1 160.3 527.9 161.2C528.7 162.1 529.1 163.3 529.1 164.8V166H521.9C521.9 167 522.2 167.9 522.8 168.4C523.3 169 524.1 169.2 525.1 169.2C525.7 169.2 526.3 169.1 526.9 169C527.5 168.9 528 168.7 528.7 168.4V170.3C528.1 170.6 527.6 170.8 527 170.9C526.3 171.1 525.6 171.2 524.9 171.2ZM524.5 161.7C523.8 161.7 523.2 161.9 522.7 162.4C522.3 162.9 522 163.5 521.9 164.4H526.8C526.8 163.5 526.6 162.8 526.2 162.4C525.8 162 525.2 161.7 524.5 161.7Z" fill="#004D5D"/>
<path d="M540.8 171H538.5V164.3C538.5 163.5 538.3 162.9 538 162.5C537.7 162.1 537.2 161.9 536.5 161.9C535.6 161.9 535 162.2 534.5 162.8C534.1 163.4 533.9 164.3 533.9 165.7V171.1H531.6V160.3H533.4L533.7 161.7H533.8C534.1 161.2 534.5 160.8 535.1 160.5C535.7 160.2 536.3 160.1 537 160.1C538.7 160.1 539.8 160.7 540.3 161.8H540.5C540.8 161.3 541.3 160.9 541.8 160.5C542.4 160.2 543 160.1 543.8 160.1C545.1 160.1 546 160.4 546.6 161.1C547.2 161.8 547.5 162.7 547.5 164.1V171.1H545.2V164.4C545.2 163.6 545 163 544.7 162.6C544.4 162.2 543.9 162 543.2 162C542.3 162 541.7 162.3 541.2 162.8C540.8 163.4 540.6 164.2 540.6 165.4V171H540.8Z" fill="#004D5D"/>
<path d="M553.1 171H550.8V160.2H553.1V171ZM550.7 157.3C550.7 156.9 550.8 156.6 551 156.4C551.2 156.2 551.6 156.1 552 156.1C552.4 156.1 552.7 156.2 552.9 156.4C553.1 156.6 553.2 156.9 553.2 157.3C553.2 157.7 553.1 158 552.9 158.2C552.7 158.4 552.4 158.5 552 158.5C551.6 158.5 551.3 158.4 551 158.2C550.8 158 550.7 157.7 550.7 157.3Z" fill="#004D5D"/>
<path d="M566 165.6C566 167.4 565.5 168.7 564.6 169.7C563.7 170.7 562.4 171.2 560.8 171.2C559.8 171.2 558.9 171 558.1 170.5C557.3 170 556.7 169.4 556.3 168.5C555.9 167.6 555.7 166.7 555.7 165.5C555.7 163.7 556.1 162.4 557 161.4C557.9 160.4 559.2 159.9 560.8 159.9C562.4 159.9 563.6 160.4 564.5 161.4C565.5 162.5 566 163.9 566 165.6ZM558.1 165.6C558.1 168.1 559 169.3 560.9 169.3C562.7 169.3 563.6 168.1 563.6 165.6C563.6 163.1 562.7 161.9 560.8 161.9C559.8 161.9 559.1 162.2 558.7 162.9C558.3 163.5 558.1 164.4 558.1 165.6Z" fill="#004D5D"/>
<path d="M147.7 122.1C147.7 129.8 145.8 135.6 142 139.6C138.2 143.6 132.7 145.6 125.4 145.6C118.2 145.6 112.7 143.6 108.9 139.6C105.1 135.6 103.2 129.7 103.2 122C103.2 114.4 105.1 108.6 108.9 104.6C112.7 100.6 118.2 98.6001 125.5 98.6001C132.8 98.6001 138.3 100.6 142 104.6C145.8 108.5 147.7 114.4 147.7 122.1ZM116.3 122.1C116.3 130.9 119.4 135.4 125.5 135.4C128.6 135.4 130.9 134.3 132.4 132.2C133.9 130.1 134.7 126.7 134.7 122.2C134.7 117.6 133.9 114.3 132.4 112.1C130.9 109.9 128.6 108.8 125.6 108.8C119.3 108.7 116.3 113.2 116.3 122.1Z" fill="#004D5D"/>
<path d="M187.2 113.8C187.2 118.9 185.7 122.9 182.7 125.6C179.7 128.4 175.4 129.8 169.9 129.8H166.4V145H154V99.3H169.8C175.6 99.3 179.9 100.6 182.8 103.1C185.7 105.6 187.2 109.2 187.2 113.8ZM166.4 119.8H168.7C170.6 119.8 172 119.3 173.1 118.2C174.2 117.2 174.8 115.7 174.8 113.9C174.8 110.8 173.1 109.3 169.7 109.3H166.5V119.8H166.4Z" fill="#004D5D"/>
<path d="M235.3 122.1C235.3 129.8 233.4 135.6 229.6 139.6C225.8 143.6 220.3 145.6 213 145.6C205.8 145.6 200.3 143.6 196.5 139.6C192.7 135.6 190.8 129.7 190.8 122C190.8 114.4 192.7 108.6 196.5 104.6C200.3 100.6 205.8 98.6001 213.1 98.6001C220.4 98.6001 225.9 100.6 229.6 104.6C233.4 108.5 235.3 114.4 235.3 122.1ZM203.8 122.1C203.8 130.9 206.9 135.4 213 135.4C216.1 135.4 218.4 134.3 219.9 132.2C221.4 130.1 222.2 126.7 222.2 122.2C222.2 117.6 221.4 114.3 219.9 112.1C218.4 109.9 216.1 108.8 213.1 108.8C206.9 108.7 203.8 113.2 203.8 122.1Z" fill="#004D5D"/>
<path d="M254 128.4V145H241.7V99.3H256.7C269.1 99.3 275.3 103.8 275.3 112.8C275.3 118.1 272.7 122.2 267.5 125.1L280.8 145H266.8L257.1 128.4H254ZM254 119.1H256.3C260.6 119.1 262.8 117.2 262.8 113.4C262.8 110.3 260.7 108.7 256.5 108.7H254V119.1Z" fill="#004D5D"/>
<path d="M303.2 145H290.9V109.4H279.7V99.3H314.3V109.4H303.2V145Z" fill="#004D5D"/>
<path d="M357.7 99.3V126.8C357.7 132.8 356 137.4 352.6 140.7C349.2 144 344.3 145.6 338 145.6C331.8 145.6 327 144 323.6 140.8C320.3 137.6 318.6 133 318.6 127V99.3H331V126.1C331 129.3 331.6 131.7 332.8 133.1C334 134.6 335.8 135.3 338.1 135.3C340.6 135.3 342.4 134.6 343.6 133.1C344.7 131.6 345.3 129.3 345.3 126V99.3H357.7Z" fill="#004D5D"/>
<path d="M408.9 145H392.7L376 112.8H375.7C376.1 117.9 376.3 121.7 376.3 124.4V145H365.4V99.3H381.5L398.1 131H398.3C398 126.4 397.9 122.7 397.9 119.9V99.3H408.9V145V145Z" fill="#004D5D"/>
<path d="M416.9 145V99.3H429.3V145H416.9Z" fill="#004D5D"/>
<path d="M476 121.2C476 128.8 473.9 134.7 469.7 138.8C465.5 142.9 459.6 145 452 145H437.2V99.3H453C460.3 99.3 466 101.2 470 104.9C474 108.7 476 114.1 476 121.2ZM463.2 121.6C463.2 117.4 462.4 114.3 460.7 112.3C459.1 110.3 456.5 109.3 453.2 109.3H449.6V134.9H452.4C456.2 134.9 458.9 133.8 460.7 131.6C462.4 129.4 463.2 126.1 463.2 121.6Z" fill="#004D5D"/>
<path d="M510.4 145L508.1 136.4H493.3L491 145H477.4L492.3 99.1001H508.8L523.9 145H510.4ZM505.6 126.3L503.6 118.8C503.1 117.1 502.6 115 501.9 112.3C501.3 109.7 500.8 107.8 500.6 106.6C500.4 107.7 500 109.4 499.5 111.9C499 114.3 497.7 119.1 495.8 126.3H505.6Z" fill="#004D5D"/>
<path d="M565.7 121.2C565.7 128.8 563.6 134.7 559.4 138.8C555.2 142.9 549.3 145 541.7 145H526.9V99.3H542.7C550 99.3 555.7 101.2 559.7 104.9C563.7 108.7 565.7 114.1 565.7 121.2ZM552.9 121.6C552.9 117.4 552.1 114.3 550.4 112.3C548.8 110.3 546.2 109.3 542.9 109.3H539.3V134.9H542.1C545.9 134.9 548.6 133.8 550.4 131.6C552 129.4 552.9 126.1 552.9 121.6Z" fill="#004D5D"/>
<path d="M75.8 0C66.8 0 59.5 7.3 59.5 16.3V58.8H16.3C7.3 58.7 0 66 0 75C0 84 7.3 91.3 16.3 91.3H59.6V133.8C59.6 142.8 66.9 150.1 75.9 150.1C84.9 150.1 92.2 142.8 92.2 133.8V91.3H133.9C142.9 91.3 150.2 84 150.2 75C150.2 66 142.9 58.7 133.9 58.7H92.1V16.3C92.1 7.3 84.8 0 75.8 0Z" fill="#F18800"/>
</svg>
