<svg width="32" height="25" viewBox="0 0 32 25" fill="none" xmlns="http://www.w3.org/2000/svg">
<path d="M30.9859 2.95962C29.8462 3.46136 28.6202 3.80072 27.3344 3.95227C28.6472 3.17142 29.6547 1.93589 30.1302 0.461263C28.9018 1.18469 27.5407 1.7095 26.0933 1.99238C24.9336 0.766263 23.2814 0 21.4519 0C17.9417 0 15.0947 2.82641 15.0947 6.31131C15.0947 6.80599 15.1511 7.28749 15.2602 7.74969C9.97686 7.48659 5.29233 4.97411 2.15666 1.15457C1.60955 2.08651 1.2957 3.17142 1.2957 4.32787C1.2957 6.51699 2.41883 8.44959 4.12368 9.5811C3.08209 9.54862 2.10119 9.2648 1.2445 8.79083C1.24403 8.81766 1.24403 8.84449 1.24403 8.87085C1.24403 11.9288 3.43624 14.4794 6.34387 15.0588C5.81099 15.2038 5.24823 15.2805 4.66936 15.2805C4.2588 15.2805 3.86103 15.2415 3.47322 15.168C4.28203 17.6749 6.62927 19.4997 9.41174 19.551C7.23564 21.244 4.4949 22.2527 1.51568 22.2527C1.00366 22.2527 0.496378 22.223 0 22.1642C2.81186 23.9556 6.15423 25 9.74408 25C21.4372 25 27.8318 15.3831 27.8318 7.04227C27.8318 6.7688 27.8256 6.49628 27.8133 6.22611C29.0563 5.33653 30.134 4.22527 30.9859 2.95962Z" fill="#00839E"/>
</svg>
